<svg width="20" height="20" viewBox="0 0 20 20" fill="none" xmlns="http://www.w3.org/2000/svg">
<path d="M13.5 16H6.5C6.224 16 6 15.776 6 15.5V14.5C6 14.224 6.224 14 6.5 14C6.776 14 7 14.224 7 14.5V15H13V14.5C13 14.224 13.224 14 13.5 14C13.776 14 14 14.224 14 14.5V15.5C14 15.776 13.776 16 13.5 16Z" fill="#E84D88"/>
<path d="M13.5 5C13.224 5 13 4.776 13 4.5V3H7V4.5C7 4.776 6.776 5 6.5 5C6.224 5 6 4.776 6 4.5V2.5C6 2.224 6.224 2 6.5 2H13.5C13.776 2 14 2.224 14 2.5V4.5C14 4.776 13.776 5 13.5 5Z" fill="#E84D88"/>
<path d="M10.5 18H9.5C9.224 18 9 17.776 9 17.5C9 17.224 9.224 17 9.5 17H10.5C10.776 17 11 17.224 11 17.5C11 17.776 10.776 18 10.5 18Z" fill="#E84D88"/>
<path d="M14.5 20H5.5C4.673 20 4 19.327 4 18.5V14.5C4 14.224 4.224 14 4.5 14C4.776 14 5 14.224 5 14.5V18.5C5 18.776 5.224 19 5.5 19H14.5C14.776 19 15 18.776 15 18.5V14.5C15 14.224 15.224 14 15.5 14C15.776 14 16 14.224 16 14.5V18.5C16 19.327 15.327 20 14.5 20Z" fill="#E84D88"/>
<path d="M15.5 5C15.224 5 15 4.776 15 4.5V1.5C15 1.224 14.776 1 14.5 1H5.5C5.224 1 5 1.224 5 1.5V4.5C5 4.776 4.776 5 4.5 5C4.224 5 4 4.776 4 4.5V1.5C4 0.673 4.673 0 5.5 0H14.5C15.327 0 16 0.673 16 1.5V4.5C16 4.776 15.776 5 15.5 5Z" fill="#E84D88"/>
<path d="M5.99976 13C5.87176 13 5.74376 12.951 5.64576 12.854L2.64576 9.85398C2.45076 9.65898 2.45076 9.34198 2.64576 9.14698L5.64576 6.14698C5.84076 5.95198 6.15776 5.95198 6.35276 6.14698C6.54776 6.34198 6.54776 6.65898 6.35276 6.85398L3.70676 9.49998L6.35276 12.146C6.54776 12.341 6.54776 12.658 6.35276 12.853C6.25476 12.951 6.12676 12.999 5.99876 12.999L5.99976 13Z" fill="#E84D88"/>
<path d="M13.9998 13C13.8718 13 13.7438 12.951 13.6458 12.854C13.4508 12.659 13.4508 12.342 13.6458 12.147L16.2918 9.50096L13.6458 6.85496C13.4508 6.65996 13.4508 6.34296 13.6458 6.14796C13.8408 5.95296 14.1578 5.95296 14.3528 6.14796L17.3528 9.14796C17.5478 9.34296 17.5478 9.65996 17.3528 9.85496L14.3528 12.855C14.2548 12.953 14.1268 13.001 13.9988 13.001L13.9998 13Z" fill="#E84D88"/>
<path d="M8.50009 13C8.42509 13 8.34909 12.983 8.27709 12.947C8.03009 12.824 7.93009 12.523 8.05309 12.276L11.0531 6.27599C11.1761 6.02899 11.4771 5.92899 11.7241 6.05199C11.9711 6.17499 12.0711 6.47599 11.9481 6.72299L8.94809 12.723C8.86009 12.898 8.68409 13 8.50009 13Z" fill="#E84D88"/>
</svg>
