<svg width="20" height="20" viewBox="0 0 20 20" fill="none" xmlns="http://www.w3.org/2000/svg">
<path d="M11.5 14H3.5C2.673 14 2 13.327 2 12.5V4.5C2 3.673 2.673 3 3.5 3H16.5C17.327 3 18 3.673 18 4.5V5.5C18 5.776 17.776 6 17.5 6C17.224 6 17 5.776 17 5.5V4.5C17 4.224 16.776 4 16.5 4H3.5C3.224 4 3 4.224 3 4.5V12.5C3 12.776 3.224 13 3.5 13H11.5C11.776 13 12 13.224 12 13.5C12 13.776 11.776 14 11.5 14Z" fill="#E84D88"/>
<path d="M11.5 18H1.5C0.673 18 0 17.327 0 16.5V15.5C0 15.224 0.224 15 0.5 15H11.5C11.776 15 12 15.224 12 15.5C12 15.776 11.776 16 11.5 16H1V16.5C1 16.776 1.224 17 1.5 17H11.5C11.776 17 12 17.224 12 17.5C12 17.776 11.776 18 11.5 18Z" fill="#E84D88"/>
<path d="M18.5 18H14.5C13.673 18 13 17.327 13 16.5V8.5C13 7.673 13.673 7 14.5 7H18.5C19.327 7 20 7.673 20 8.5V16.5C20 17.327 19.327 18 18.5 18ZM14.5 8C14.224 8 14 8.224 14 8.5V16.5C14 16.776 14.224 17 14.5 17H18.5C18.776 17 19 16.776 19 16.5V8.5C19 8.224 18.776 8 18.5 8H14.5Z" fill="#E84D88"/>
<path d="M16.5 16C16.368 16 16.24 15.947 16.147 15.853C16.054 15.759 16 15.631 16 15.5C16 15.369 16.053 15.239 16.147 15.147C16.24 15.054 16.369 15 16.5 15C16.631 15 16.761 15.053 16.853 15.147C16.946 15.24 17 15.369 17 15.5C17 15.631 16.947 15.761 16.853 15.853C16.76 15.946 16.631 16 16.5 16Z" fill="#E84D88"/>
</svg>
