<svg width="48" height="48" viewBox="0 0 48 48" fill="none" xmlns="http://www.w3.org/2000/svg">
<circle cx="24.0001" cy="24" r="15.36" fill="#EA4C89"/>
<path fill-rule="evenodd" clip-rule="evenodd" d="M24 8C15.167 8 8 15.167 8 24C8 32.833 15.167 40 24 40C32.8156 40 40 32.833 40 24C40 15.167 32.8156 8 24 8ZM34.5683 15.3753C36.4772 17.7007 37.6226 20.6682 37.6573 23.8786C37.2061 23.7918 32.6942 22.8721 28.1475 23.4447C28.0434 23.2191 27.9566 22.9762 27.8525 22.7332C27.5749 22.0738 27.2625 21.397 26.9501 20.7549C31.9827 18.7072 34.2733 15.7571 34.5683 15.3753ZM24.0001 10.3601C27.4708 10.3601 30.6465 11.6616 33.0586 13.7961C32.8157 14.1432 30.7506 16.9024 25.8916 18.7246C23.653 14.6118 21.1714 11.2452 20.7897 10.7246C21.8135 10.4816 22.8894 10.3601 24.0001 10.3601ZM18.1867 11.6442C18.5511 12.1301 20.9806 15.5141 23.2539 19.5401C16.8678 21.2407 11.2279 21.2061 10.6205 21.2061C11.5055 16.9718 14.3689 13.449 18.1867 11.6442ZM10.3254 24.0174C10.3254 23.8786 10.3254 23.7397 10.3254 23.6009C10.9154 23.6182 17.5445 23.705 24.3645 21.6573C24.7636 22.4209 25.128 23.2018 25.4751 23.9827C25.3015 24.0347 25.1107 24.0868 24.9371 24.1388C17.8916 26.4122 14.1432 32.6248 13.8309 33.1454C11.6616 30.7332 10.3254 27.5228 10.3254 24.0174ZM23.9999 37.6747C20.8415 37.6747 17.9261 36.5987 15.6181 34.794C15.8611 34.2907 18.6376 28.9458 26.3426 26.256C26.3773 26.2387 26.3947 26.2387 26.4294 26.2213C28.3556 31.2018 29.1366 35.384 29.3448 36.5814C27.6962 37.2929 25.8914 37.6747 23.9999 37.6747ZM31.6181 35.3319C31.4793 34.4989 30.7505 30.5075 28.963 25.5965C33.2494 24.9197 36.9977 26.0303 37.4663 26.1865C36.8763 29.9869 34.6897 33.2668 31.6181 35.3319Z" fill="#C32361"/>
</svg>
