<svg width="23" height="50" viewBox="0 0 23 50" fill="none" xmlns="http://www.w3.org/2000/svg">
<path d="M5.75105 42C8.92441 42 11.4999 39.4614 11.4999 36.3334V30.6667H5.75105C2.57768 30.6667 0.00219727 33.2054 0.00219727 36.3334C0.00219727 39.4614 2.57768 42 5.75105 42Z" fill="#0ACF83"/>
<path d="M0.00219727 25C0.00219727 21.872 2.57768 19.3333 5.75105 19.3333H11.4999V30.6666H5.75105C2.57768 30.6666 0.00219727 28.128 0.00219727 25Z" fill="#A259FF"/>
<path d="M0.00268555 13.6667C0.00268555 10.5387 2.57817 8 5.75154 8H11.5004V19.3333H5.75154C2.57817 19.3333 0.00268555 16.7947 0.00268555 13.6667Z" fill="#F24E1E"/>
<path d="M11.5 8H17.2489C20.4222 8 22.9977 10.5387 22.9977 13.6667C22.9977 16.7947 20.4222 19.3333 17.2489 19.3333H11.5V8Z" fill="#FF7262"/>
<path d="M22.9977 25C22.9977 28.128 20.4222 30.6666 17.2489 30.6666C14.0755 30.6666 11.5 28.128 11.5 25C11.5 21.872 14.0755 19.3333 17.2489 19.3333C20.4222 19.3333 22.9977 21.872 22.9977 25Z" fill="#1ABCFE"/>
</svg>
