<svg width="48" height="50" viewBox="0 0 48 50" fill="none" xmlns="http://www.w3.org/2000/svg">
<path d="M9.31818 37.7564H14.7273V24.62L7 18.8246V35.4382C7 36.721 8.03932 37.7564 9.31818 37.7564Z" fill="#4285F4"/>
<path d="M33.2727 37.7564H38.6818C39.9645 37.7564 41 36.7171 41 35.4382V18.8246L33.2727 24.62" fill="#34A853"/>
<path d="M33.2727 14.5748V24.6202L41 18.8248V15.7338C41 12.867 37.7275 11.2327 35.4363 12.952" fill="#FBBC04"/>
<path d="M14.7273 24.62V14.5746L24 21.5291L33.2728 14.5746V24.62L24 31.5746" fill="#EA4335"/>
<path d="M7 15.7338V18.8248L14.7273 24.6202V14.5748L12.5636 12.952C10.2686 11.2327 7 12.867 7 15.7338" fill="#C5221F"/>
</svg>
