<svg width="20" height="20" viewBox="0 0 20 20" fill="none" xmlns="http://www.w3.org/2000/svg">
<path d="M18.9002 7.19999L15.9002 3.19999C15.8232 3.09699 15.7092 3.02799 15.5822 3.00699L9.58223 2.00699C9.52823 1.99799 9.47223 1.99799 9.41823 2.00699L3.41823 3.00699C3.29123 3.02799 3.17723 3.09699 3.10023 3.19999L0.100235 7.19999C-0.0427653 7.39099 -0.0307653 7.65699 0.128235 7.83399L9.12823 17.834C9.22323 17.939 9.35823 18 9.50023 18C9.64223 18 9.77723 17.94 9.87223 17.834L18.8722 7.83399C19.0322 7.65599 19.0442 7.39099 18.9002 7.19999ZM12.7862 6.99999L9.50023 16.037L6.21423 6.99999H12.7862ZM6.70723 5.99999L9.50023 3.20699L12.2932 5.99999H6.70723ZM10.9572 3.24999L14.6552 3.86599L13.4222 5.71499L10.9572 3.24999ZM5.57823 5.71499L4.34523 3.86599L8.04323 3.24999L5.57823 5.71499ZM4.67023 6.15599L1.68523 6.75299L3.47623 4.36499L4.67023 6.15599ZM5.17723 7.07499L8.15123 15.254L1.45923 7.81799L5.17723 7.07499ZM13.8232 7.07499L17.5412 7.81899L10.8492 15.255L13.8232 7.07599V7.07499ZM14.3302 6.15599L15.5242 4.36499L17.3152 6.75299L14.3302 6.15599Z" fill="#E84D88"/>
</svg>
