<svg width="48" height="50" viewBox="0 0 48 50" fill="none" xmlns="http://www.w3.org/2000/svg">
<path fill-rule="evenodd" clip-rule="evenodd" d="M15.2703 25C15.2703 20.1787 19.1787 16.2703 24 16.2703C28.8213 16.2703 32.7297 20.1787 32.7297 25C32.7297 29.8213 28.8213 33.7297 24 33.7297C19.1787 33.7297 15.2703 29.8213 15.2703 25ZM24 30.6667C20.8704 30.6667 18.3333 28.1296 18.3333 25C18.3333 21.8704 20.8704 19.3333 24 19.3333C27.1296 19.3333 29.6667 21.8704 29.6667 25C29.6667 28.1296 27.1296 30.6667 24 30.6667Z" fill="url(#paint0_linear_53_1107)"/>
<path fill-rule="evenodd" clip-rule="evenodd" d="M15.2703 25C15.2703 20.1787 19.1787 16.2703 24 16.2703C28.8213 16.2703 32.7297 20.1787 32.7297 25C32.7297 29.8213 28.8213 33.7297 24 33.7297C19.1787 33.7297 15.2703 29.8213 15.2703 25ZM24 30.6667C20.8704 30.6667 18.3333 28.1296 18.3333 25C18.3333 21.8704 20.8704 19.3333 24 19.3333C27.1296 19.3333 29.6667 21.8704 29.6667 25C29.6667 28.1296 27.1296 30.6667 24 30.6667Z" fill="url(#paint1_radial_53_1107)"/>
<path d="M33.0746 17.9653C34.2013 17.9653 35.1147 17.0521 35.1147 15.9254C35.1147 14.7987 34.2013 13.8853 33.0746 13.8853C31.948 13.8853 31.0347 14.7987 31.0347 15.9254C31.0347 17.0521 31.948 17.9653 33.0746 17.9653Z" fill="url(#paint2_linear_53_1107)"/>
<path d="M33.0746 17.9653C34.2013 17.9653 35.1147 17.0521 35.1147 15.9254C35.1147 14.7987 34.2013 13.8853 33.0746 13.8853C31.948 13.8853 31.0347 14.7987 31.0347 15.9254C31.0347 17.0521 31.948 17.9653 33.0746 17.9653Z" fill="url(#paint3_radial_53_1107)"/>
<path fill-rule="evenodd" clip-rule="evenodd" d="M24 8C19.3831 8 18.8042 8.01957 16.9909 8.1023C15.1815 8.18483 13.9457 8.47224 12.8644 8.89251C11.7465 9.32689 10.7984 9.90818 9.85326 10.8533C8.90818 11.7984 8.32689 12.7465 7.89251 13.8644C7.47224 14.9457 7.18483 16.1815 7.1023 17.9909C7.01957 19.8042 7 20.3831 7 25C7 29.6169 7.01957 30.1958 7.1023 32.0091C7.18483 33.8185 7.47224 35.0543 7.89251 36.1356C8.32689 37.2535 8.90818 38.2016 9.85326 39.1467C10.7984 40.0918 11.7465 40.6731 12.8644 41.1076C13.9457 41.5278 15.1815 41.8152 16.9909 41.8977C18.8042 41.9804 19.3831 42 24 42C28.6169 42 29.1958 41.9804 31.0091 41.8977C32.8185 41.8152 34.0543 41.5278 35.1356 41.1076C36.2535 40.6731 37.2016 40.0918 38.1467 39.1467C39.0918 38.2016 39.6731 37.2535 40.1076 36.1356C40.5278 35.0543 40.8152 33.8185 40.8977 32.0091C40.9804 30.1958 41 29.6169 41 25C41 20.3831 40.9804 19.8042 40.8977 17.9909C40.8152 16.1815 40.5278 14.9457 40.1076 13.8644C39.6731 12.7465 39.0918 11.7984 38.1467 10.8533C37.2016 9.90818 36.2535 9.32689 35.1356 8.89251C34.0543 8.47224 32.8185 8.18483 31.0091 8.1023C29.1958 8.01957 28.6169 8 24 8ZM24 11.0631C28.5392 11.0631 29.0769 11.0804 30.8695 11.1622C32.5269 11.2378 33.4271 11.5147 34.0261 11.7475C34.8196 12.0559 35.3859 12.4243 35.9808 13.0192C36.5757 13.6141 36.9441 14.1804 37.2525 14.9739C37.4853 15.5729 37.7622 16.4731 37.8378 18.1305C37.9196 19.9231 37.9369 20.4608 37.9369 25C37.9369 29.5392 37.9196 30.0769 37.8378 31.8695C37.7622 33.5269 37.4853 34.4271 37.2525 35.0261C36.9441 35.8196 36.5757 36.3859 35.9808 36.9808C35.3859 37.5757 34.8196 37.9441 34.0261 38.2525C33.4271 38.4853 32.5269 38.7622 30.8695 38.8378C29.0772 38.9196 28.5395 38.9369 24 38.9369C19.4605 38.9369 18.9229 38.9196 17.1305 38.8378C15.4731 38.7622 14.5729 38.4853 13.9739 38.2525C13.1804 37.9441 12.6141 37.5757 12.0192 36.9808C11.4244 36.3859 11.0559 35.8196 10.7475 35.0261C10.5147 34.4271 10.2378 33.5269 10.1622 31.8695C10.0804 30.0769 10.0631 29.5392 10.0631 25C10.0631 20.4608 10.0804 19.9231 10.1622 18.1305C10.2378 16.4731 10.5147 15.5729 10.7475 14.9739C11.0559 14.1804 11.4243 13.6141 12.0192 13.0192C12.6141 12.4243 13.1804 12.0559 13.9739 11.7475C14.5729 11.5147 15.4731 11.2378 17.1305 11.1622C18.9231 11.0804 19.4608 11.0631 24 11.0631Z" fill="url(#paint4_linear_53_1107)"/>
<path fill-rule="evenodd" clip-rule="evenodd" d="M24 8C19.3831 8 18.8042 8.01957 16.9909 8.1023C15.1815 8.18483 13.9457 8.47224 12.8644 8.89251C11.7465 9.32689 10.7984 9.90818 9.85326 10.8533C8.90818 11.7984 8.32689 12.7465 7.89251 13.8644C7.47224 14.9457 7.18483 16.1815 7.1023 17.9909C7.01957 19.8042 7 20.3831 7 25C7 29.6169 7.01957 30.1958 7.1023 32.0091C7.18483 33.8185 7.47224 35.0543 7.89251 36.1356C8.32689 37.2535 8.90818 38.2016 9.85326 39.1467C10.7984 40.0918 11.7465 40.6731 12.8644 41.1076C13.9457 41.5278 15.1815 41.8152 16.9909 41.8977C18.8042 41.9804 19.3831 42 24 42C28.6169 42 29.1958 41.9804 31.0091 41.8977C32.8185 41.8152 34.0543 41.5278 35.1356 41.1076C36.2535 40.6731 37.2016 40.0918 38.1467 39.1467C39.0918 38.2016 39.6731 37.2535 40.1076 36.1356C40.5278 35.0543 40.8152 33.8185 40.8977 32.0091C40.9804 30.1958 41 29.6169 41 25C41 20.3831 40.9804 19.8042 40.8977 17.9909C40.8152 16.1815 40.5278 14.9457 40.1076 13.8644C39.6731 12.7465 39.0918 11.7984 38.1467 10.8533C37.2016 9.90818 36.2535 9.32689 35.1356 8.89251C34.0543 8.47224 32.8185 8.18483 31.0091 8.1023C29.1958 8.01957 28.6169 8 24 8ZM24 11.0631C28.5392 11.0631 29.0769 11.0804 30.8695 11.1622C32.5269 11.2378 33.4271 11.5147 34.0261 11.7475C34.8196 12.0559 35.3859 12.4243 35.9808 13.0192C36.5757 13.6141 36.9441 14.1804 37.2525 14.9739C37.4853 15.5729 37.7622 16.4731 37.8378 18.1305C37.9196 19.9231 37.9369 20.4608 37.9369 25C37.9369 29.5392 37.9196 30.0769 37.8378 31.8695C37.7622 33.5269 37.4853 34.4271 37.2525 35.0261C36.9441 35.8196 36.5757 36.3859 35.9808 36.9808C35.3859 37.5757 34.8196 37.9441 34.0261 38.2525C33.4271 38.4853 32.5269 38.7622 30.8695 38.8378C29.0772 38.9196 28.5395 38.9369 24 38.9369C19.4605 38.9369 18.9229 38.9196 17.1305 38.8378C15.4731 38.7622 14.5729 38.4853 13.9739 38.2525C13.1804 37.9441 12.6141 37.5757 12.0192 36.9808C11.4244 36.3859 11.0559 35.8196 10.7475 35.0261C10.5147 34.4271 10.2378 33.5269 10.1622 31.8695C10.0804 30.0769 10.0631 29.5392 10.0631 25C10.0631 20.4608 10.0804 19.9231 10.1622 18.1305C10.2378 16.4731 10.5147 15.5729 10.7475 14.9739C11.0559 14.1804 11.4243 13.6141 12.0192 13.0192C12.6141 12.4243 13.1804 12.0559 13.9739 11.7475C14.5729 11.5147 15.4731 11.2378 17.1305 11.1622C18.9231 11.0804 19.4608 11.0631 24 11.0631Z" fill="url(#paint5_radial_53_1107)"/>
<defs>
<linearGradient id="paint0_linear_53_1107" x1="8.98379" y1="9.78748" x2="19.7037" y2="51.2534" gradientUnits="userSpaceOnUse">
<stop stop-color="#4E60D3"/>
<stop offset="0.142763" stop-color="#913BAF"/>
<stop offset="0.761458" stop-color="#D52D88"/>
<stop offset="1" stop-color="#F26D4F"/>
</linearGradient>
<radialGradient id="paint1_radial_53_1107" cx="0" cy="0" r="1" gradientUnits="userSpaceOnUse" gradientTransform="translate(17.2933 42) rotate(32.1601) scale(31.7542 22.8525)">
<stop stop-color="#FED276"/>
<stop offset="0.17024" stop-color="#FDBD61" stop-opacity="0.975006"/>
<stop offset="0.454081" stop-color="#F6804D"/>
<stop offset="1" stop-color="#E83D5C" stop-opacity="0.01"/>
</radialGradient>
<linearGradient id="paint2_linear_53_1107" x1="8.98379" y1="9.78748" x2="19.7037" y2="51.2534" gradientUnits="userSpaceOnUse">
<stop stop-color="#4E60D3"/>
<stop offset="0.142763" stop-color="#913BAF"/>
<stop offset="0.761458" stop-color="#D52D88"/>
<stop offset="1" stop-color="#F26D4F"/>
</linearGradient>
<radialGradient id="paint3_radial_53_1107" cx="0" cy="0" r="1" gradientUnits="userSpaceOnUse" gradientTransform="translate(17.2933 42) rotate(32.1601) scale(31.7542 22.8525)">
<stop stop-color="#FED276"/>
<stop offset="0.17024" stop-color="#FDBD61" stop-opacity="0.975006"/>
<stop offset="0.454081" stop-color="#F6804D"/>
<stop offset="1" stop-color="#E83D5C" stop-opacity="0.01"/>
</radialGradient>
<linearGradient id="paint4_linear_53_1107" x1="8.98379" y1="9.78748" x2="19.7037" y2="51.2534" gradientUnits="userSpaceOnUse">
<stop stop-color="#4E60D3"/>
<stop offset="0.142763" stop-color="#913BAF"/>
<stop offset="0.761458" stop-color="#D52D88"/>
<stop offset="1" stop-color="#F26D4F"/>
</linearGradient>
<radialGradient id="paint5_radial_53_1107" cx="0" cy="0" r="1" gradientUnits="userSpaceOnUse" gradientTransform="translate(17.2933 42) rotate(32.1601) scale(31.7542 22.8525)">
<stop stop-color="#FED276"/>
<stop offset="0.17024" stop-color="#FDBD61" stop-opacity="0.975006"/>
<stop offset="0.454081" stop-color="#F6804D"/>
<stop offset="1" stop-color="#E83D5C" stop-opacity="0.01"/>
</radialGradient>
</defs>
</svg>
