<svg width="32" height="32" viewBox="0 0 32 32" fill="none" xmlns="http://www.w3.org/2000/svg">
<path d="M31.2849 0H0V31.1111H31.2849V0Z" fill="#F7DF1E"/>
<path d="M19.1139 19.2966C19.9085 20.632 20.9424 21.6137 22.771 21.6137C24.3071 21.6137 25.2884 20.8235 25.2884 19.7316C25.2884 18.4233 24.2802 17.9598 22.5894 17.1987L21.6626 16.7894C18.9874 15.6163 17.2102 14.1468 17.2102 11.0402C17.2102 8.1785 19.3287 6 22.6395 6C24.9966 6 26.6911 6.84433 27.9123 9.05506L25.0254 10.9629C24.3898 9.78982 23.7041 9.32769 22.6395 9.32769C21.5536 9.32769 20.8654 10.0367 20.8654 10.9629C20.8654 12.1075 21.5543 12.5709 23.1448 13.2799L24.0717 13.6886C27.2215 15.0788 29 16.4961 29 19.6827C29 23.118 26.378 25 22.8568 25C19.4138 25 17.1895 23.3113 16.1011 21.098L19.1139 19.2966ZM6.01775 19.6272C6.60013 20.6907 7.12992 21.5898 8.40365 21.5898C9.62164 21.5898 10.39 21.0993 10.39 19.1922V6.21785H14.0972V19.2437C14.0972 23.1947 11.8466 24.9929 8.56145 24.9929C5.59317 24.9929 3.8742 23.4119 3 21.5076L6.01775 19.6272Z" fill="black"/>
</svg>
