<svg width="48" height="49" viewBox="0 0 48 49" fill="none" xmlns="http://www.w3.org/2000/svg">
<path d="M32.6094 18.041C37.4049 18.041 40.9999 21.1711 41 27.8965V40.4512H33.7129V28.7373C33.7129 25.795 32.6583 23.7873 30.0205 23.7871C28.0072 23.7871 26.807 25.1399 26.2803 26.4473C26.0876 26.9158 26.041 27.5692 26.041 28.2236V40.4521H18.752C18.752 40.4521 18.848 20.6103 18.752 18.5557H26.041V21.6572C27.0082 20.1663 28.7403 18.0411 32.6094 18.041ZM14.7188 40.4512H7.43066V18.5547H14.7188V40.4512ZM11.123 8C13.6158 8.00006 15.1507 9.63459 15.1982 11.7812C15.1982 13.8836 13.6161 15.5663 11.0752 15.5664H11.0283C8.5817 15.5664 7 13.8837 7 11.7812C7.00023 9.63455 8.63017 8 11.123 8Z" fill="#0077B5"/>
</svg>
