<svg width="48" height="42" viewBox="0 0 48 42" fill="none" xmlns="http://www.w3.org/2000/svg">
<path d="M16.2289 19.2522C18.3089 23.34 21.66 26.6911 25.7478 28.7711L28.9256 25.5933C29.33 25.1889 29.8933 25.0733 30.3989 25.2322C32.0167 25.7667 33.75 26.0556 35.5556 26.0556C35.9386 26.0556 36.306 26.2077 36.5769 26.4786C36.8478 26.7495 37 27.1169 37 27.5V32.5556C37 32.9386 36.8478 33.306 36.5769 33.5769C36.306 33.8478 35.9386 34 35.5556 34C29.043 34 22.7972 31.4129 18.1922 26.8078C13.5871 22.2028 11 15.957 11 9.44444C11 9.06135 11.1522 8.69395 11.4231 8.42307C11.694 8.15218 12.0614 8 12.4444 8H17.5C17.8831 8 18.2505 8.15218 18.5214 8.42307C18.7923 8.69395 18.9444 9.06135 18.9444 9.44444C18.9444 11.25 19.2333 12.9833 19.7678 14.6011C19.9267 15.1067 19.8111 15.67 19.4067 16.0744L16.2289 19.2522Z" fill="#FE1D6E"/>
</svg>
