<svg width="46" height="50" viewBox="0 0 46 50" fill="none" xmlns="http://www.w3.org/2000/svg">
<path d="M0 41.5827V8.5458C0 8.32106 0.0952381 8.19263 0.31746 8.19263C3.59808 8.19263 6.87721 8 10.1587 8C15.4834 8 21.249 9.79526 23.2698 15.288C23.746 16.6365 24 18.017 24 19.4617C24 22.2228 23.3651 24.5024 22.0952 26.3003C18.548 31.3226 12.4 31.2446 6.88889 31.2446V41.5505C6.93199 41.8556 6.6683 42 6.4127 42H0.380952C0.126984 42 0 41.8716 0 41.5827ZM6.92064 14.3891V25.1766C9.10581 25.3344 11.3925 25.3516 13.4921 24.6629C15.81 24.0036 17.0794 22.0251 17.0794 19.6544C17.1438 17.6343 16.0274 15.696 14.127 14.9669C12.0527 14.1165 9.15975 14.0655 6.92064 14.3891Z" fill="#31A8FF"/>
<path d="M43.946 18.8121C42.9571 18.3078 41.9037 17.9389 40.815 17.7154C39.4158 17.3968 33.8974 16.2813 33.8954 19.0731C33.9443 20.6318 36.5015 21.3954 37.6313 21.8407C41.5978 23.1583 46.0863 25.5136 45.9982 30.2481C46.1194 36.142 40.2174 38.4982 35.1581 38.4988C32.5243 38.5252 29.7806 38.1305 27.3702 37.0365C27.1401 36.9187 26.992 36.6668 27.0019 36.41V30.7703C26.9759 30.5441 27.2267 30.3466 27.4228 30.5092C29.7845 31.8911 32.5839 32.562 35.3159 32.598C36.5221 32.598 38.9125 32.4849 38.8944 30.7703C38.8944 29.1248 36.0348 28.3684 34.8949 27.9504C33.2428 27.3797 31.676 26.5892 30.2379 25.6005C28.2284 24.2136 26.9675 21.9896 27.0019 19.5431C26.9901 13.9935 32.4229 11.5025 37.3156 11.5013C39.6029 11.4831 42.0591 11.647 44.1884 12.5457C44.4945 12.6329 44.558 12.9449 44.5567 13.2245V18.4987C44.5761 18.8261 44.2004 18.9376 43.946 18.8121Z" fill="#31A8FF"/>
</svg>
