<svg width="49" height="50" viewBox="0 0 49 50" fill="none" xmlns="http://www.w3.org/2000/svg">
<path d="M26.3188 11.4786L17.6821 26.0596L26.9225 41.5431C27.1145 41.8942 26.9225 41.9717 26.6438 41.9717H20.0503C19.5859 41.9717 19.2609 41.955 19.0752 41.6381C18.4555 40.4033 17.8365 39.1763 17.2178 37.9573C16.5982 36.7386 15.9404 35.4959 15.2444 34.2288C14.5479 32.9628 13.8592 31.6805 13.1781 30.3817C12.5585 31.6484 11.8697 32.915 11.2046 34.1813C10.5387 35.4482 9.88087 36.7067 9.23124 37.9573C8.58119 39.2084 7.91566 40.4511 7.23463 41.6856C7.11057 41.9706 6.89355 42 6.58445 42H0.223129C-0.0268115 42 -0.0569791 41.8126 0.083854 41.5906L9.04549 26.5346L0.315934 11.4311C0.157362 11.2156 0.29384 10.9859 0.548151 11.0036H7.09523C7.37871 10.9876 7.62926 11.0944 7.79174 11.3361C8.34898 12.6029 8.96808 13.8694 9.64907 15.1357C10.3297 16.4025 11.0185 17.6532 11.7154 18.8879C12.4119 20.1227 13.1007 21.3734 13.6889 22.64C14.3077 21.342 14.9345 20.0755 15.5695 18.8404C16.2036 17.6055 16.8536 16.3627 17.5196 15.112C18.1851 13.8615 18.8273 12.6187 19.4466 11.3836C19.5289 11.1127 19.7257 10.9754 20.0038 11.0036H26.0866C26.3188 11.0036 26.4149 11.3198 26.3188 11.4786Z" fill="#FF61F6"/>
<path d="M39.3747 41.9983C35.1934 42.0616 30.814 40.3878 28.6125 36.679C27.5375 34.8985 27.0002 32.6683 27.0004 29.9886C26.9826 27.8185 27.5387 25.6821 28.6125 23.7946C31.3831 18.9789 36.9649 17.1745 42.2668 17.648V8.33345C42.2668 8.11327 42.3615 8.00248 42.5513 8.00248H48.5248C48.6882 7.97921 48.8328 8.12329 48.8094 8.28612V36.2298C48.8094 37.3827 48.927 38.5317 48.9992 39.6814C49.0108 39.8778 48.8939 40.072 48.7147 40.1543C45.763 41.3819 42.5693 41.984 39.3747 41.9983ZM42.2666 36.1353V23.2273C37.9365 22.0574 33.7322 25.2645 33.7328 29.7048C33.6299 34.2957 37.6997 37.4673 42.2666 36.1353Z" fill="#FF61F6"/>
</svg>
